<svg width="16" height="17" viewBox="0 0 16 17" fill="none" xmlns="http://www.w3.org/2000/svg">
<path d="M12.2667 2.99501C11.7333 2.99501 11.3067 3.42168 11.3067 3.95501C11.3067 4.48835 11.7333 4.91501 12.2667 4.91501C12.8 4.91501 13.2267 4.48835 13.2267 3.95501C13.2267 3.42168 12.8 2.99501 12.2667 2.99501ZM8 10.8883C6.50667 10.8883 5.33333 9.71501 5.33333 8.22168C5.33333 6.72835 6.50667 5.55501 8 5.55501C9.49333 5.55501 10.6667 6.72835 10.6667 8.22168C10.6667 9.71501 9.49333 10.8883 8 10.8883ZM8 4.06168C5.76 4.06168 3.84 5.87501 3.84 8.22168C3.84 10.5683 5.65333 12.3817 8 12.3817C10.3467 12.3817 12.16 10.5683 12.16 8.22168C12.16 5.98168 10.24 4.06168 8 4.06168ZM8 0.22168H4.69333C1.81333 0.435013 0.213333 2.03501 0 4.91501V11.5283C0.106667 14.4083 1.70667 16.0083 4.69333 16.2217H11.3067C14.1867 16.115 15.7867 14.515 16 11.5283V8.22168V4.91501C15.8933 2.03501 14.2933 0.435013 11.3067 0.22168H8ZM8 1.71501H11.2C13.3333 1.82168 14.4 2.88835 14.5067 5.02168V11.4217C14.4 13.555 13.44 14.6217 11.2 14.7283H4.8C2.66667 14.6217 1.6 13.555 1.49333 11.4217V8.22168V5.02168C1.6 2.88835 2.56 1.82168 4.8 1.71501H8Z" fill="black"/>
</svg>
