<svg width="16" height="17" viewBox="0 0 16 17" fill="none" xmlns="http://www.w3.org/2000/svg">
<path fill-rule="evenodd" clip-rule="evenodd" d="M14.2602 2.85097C14.9456 3.03548 15.4859 3.57584 15.6704 4.26118C16.0131 5.51323 15.9999 8.12278 15.9999 8.12278C15.9999 8.12278 15.9999 10.7191 15.6704 11.9712C15.4859 12.6565 14.9456 13.1969 14.2602 13.3814C13.0082 13.7109 7.99997 13.7109 7.99997 13.7109C7.99997 13.7109 3.00493 13.7109 1.7397 13.3682C1.05436 13.1837 0.514001 12.6433 0.329488 11.958C0 10.7191 0 8.1096 0 8.1096C0 8.1096 0 5.51323 0.329488 4.26118C0.514001 3.57584 1.06754 3.0223 1.7397 2.83779C2.99175 2.5083 7.99997 2.5083 7.99997 2.5083C7.99997 2.5083 13.0082 2.5083 14.2602 2.85097ZM10.5692 8.10923L6.40451 10.5079V5.71056L10.5692 8.10923Z" fill="black"/>
</svg>
