<svg width="16" height="17" viewBox="0 0 16 17" fill="none" xmlns="http://www.w3.org/2000/svg">
<path fill-rule="evenodd" clip-rule="evenodd" d="M11.2084 12.4177C13.2132 12.1784 14.9587 10.9432 15.1781 9.81449C15.5238 8.03655 15.4952 5.47571 15.4952 5.47571C15.4952 2.00482 13.2212 0.987452 13.2212 0.987452C12.0746 0.460836 10.1057 0.23938 8.06019 0.222656H8.00993C5.96441 0.23938 3.99682 0.460836 2.85015 0.987452C2.85015 0.987452 0.57602 2.00482 0.57602 5.47571C0.57602 5.68613 0.574932 5.90745 0.5738 6.13785C0.570655 6.77771 0.567167 7.48762 0.585674 8.22861C0.668257 11.623 1.20798 14.9682 4.34629 15.7989C5.7933 16.1819 7.03566 16.2621 8.03622 16.2071C9.85072 16.1065 10.8693 15.5595 10.8693 15.5595L10.8095 14.243C10.8095 14.243 9.5128 14.6519 8.05657 14.602C6.61378 14.5526 5.09066 14.4465 4.8573 12.6751C4.83575 12.5195 4.82498 12.3531 4.82498 12.1784C4.82498 12.1784 6.2413 12.5246 8.03622 12.6068C9.13376 12.6571 10.163 12.5425 11.2084 12.4177ZM12.813 9.94786V5.74519C12.813 4.88626 12.5943 4.2037 12.1551 3.69872C11.702 3.19375 11.1088 2.93488 10.3724 2.93488C9.52029 2.93488 8.87506 3.26236 8.44853 3.91742L8.03372 4.61265L7.61899 3.91742C7.19237 3.26236 6.54714 2.93488 5.69511 2.93488C4.95867 2.93488 4.36542 3.19375 3.91243 3.69872C3.47313 4.2037 3.25444 4.88626 3.25444 5.74519V9.94786H4.91945V5.86872C4.91945 5.00884 5.28125 4.57239 6.00492 4.57239C6.80506 4.57239 7.20617 5.09013 7.20617 6.11388V8.34663H8.86135V6.11388C8.86135 5.09013 9.26237 4.57239 10.0625 4.57239C10.7862 4.57239 11.148 5.00884 11.148 5.86872V9.94786H12.813Z" fill="black"/>
</svg>
