<svg width="17" height="17" viewBox="0 0 17 17" fill="none" xmlns="http://www.w3.org/2000/svg">
<path d="M16.5713 3.51318C15.9659 3.77604 15.3605 3.95127 14.6686 4.03889C15.3605 3.6008 15.8794 2.98746 16.1389 2.19889C15.5335 2.54937 14.8416 2.81223 14.0632 2.98746C13.4578 2.37413 12.5929 1.93604 11.728 1.93604C9.65237 1.93604 8.09561 3.95127 8.52805 5.96651C5.76048 5.87889 3.33886 4.56461 1.7821 2.54937C0.917235 4.03889 1.26318 5.96651 2.73345 6.93032C2.21453 6.93032 1.69561 6.8427 1.26318 6.57984C1.26318 8.06937 2.30102 9.55889 3.94426 9.82175C3.42534 9.99699 2.90642 9.99699 2.38751 9.90937C2.81994 11.2237 4.03075 12.1875 5.41453 12.1875C4.03075 13.2389 2.30102 13.7646 0.571289 13.5894C2.04156 14.5532 3.77129 15.0789 5.67399 15.0789C11.728 15.0789 15.1875 9.90937 15.0145 5.17794C15.6199 4.73984 16.1389 4.12651 16.5713 3.51318Z" fill="black"/>
</svg>
