<svg width="17" height="17" viewBox="0 0 17 17" fill="none" xmlns="http://www.w3.org/2000/svg">
<path d="M16.5713 3.51415C15.9659 3.77701 15.3605 3.95225 14.6686 4.03987C15.3605 3.60177 15.8794 2.98844 16.1389 2.19987C15.5335 2.55035 14.8416 2.8132 14.0632 2.98844C13.4578 2.37511 12.5929 1.93701 11.728 1.93701C9.65237 1.93701 8.09561 3.95225 8.52805 5.96749C5.76048 5.87987 3.33886 4.56558 1.7821 2.55035C0.917235 4.03987 1.26318 5.96749 2.73345 6.9313C2.21453 6.9313 1.69561 6.84368 1.26318 6.58082C1.26318 8.07034 2.30102 9.55987 3.94426 9.82273C3.42534 9.99796 2.90642 9.99796 2.38751 9.91035C2.81994 11.2246 4.03075 12.1884 5.41453 12.1884C4.03075 13.2399 2.30102 13.7656 0.571289 13.5903C2.04156 14.5542 3.77129 15.0799 5.67399 15.0799C11.728 15.0799 15.1875 9.91034 15.0145 5.17892C15.6199 4.74082 16.1389 4.12749 16.5713 3.51415Z" fill="black"/>
</svg>
