<svg width="16" height="17" viewBox="0 0 16 17" fill="none" xmlns="http://www.w3.org/2000/svg">
<path d="M12.2667 2.99599C11.7333 2.99599 11.3067 3.42266 11.3067 3.95599C11.3067 4.48932 11.7333 4.91599 12.2667 4.91599C12.8 4.91599 13.2267 4.48932 13.2267 3.95599C13.2267 3.42266 12.8 2.99599 12.2667 2.99599ZM8 10.8893C6.50667 10.8893 5.33333 9.71599 5.33333 8.22266C5.33333 6.72932 6.50667 5.55599 8 5.55599C9.49333 5.55599 10.6667 6.72932 10.6667 8.22266C10.6667 9.71599 9.49333 10.8893 8 10.8893ZM8 4.06266C5.76 4.06266 3.84 5.87599 3.84 8.22266C3.84 10.5693 5.65333 12.3827 8 12.3827C10.3467 12.3827 12.16 10.5693 12.16 8.22266C12.16 5.98266 10.24 4.06266 8 4.06266ZM8 0.222656H4.69333C1.81333 0.43599 0.213333 2.03599 0 4.91599V11.5293C0.106667 14.4093 1.70667 16.0093 4.69333 16.2227H11.3067C14.1867 16.116 15.7867 14.516 16 11.5293V8.22266V4.91599C15.8933 2.03599 14.2933 0.43599 11.3067 0.222656H8ZM8 1.71599H11.2C13.3333 1.82266 14.4 2.88932 14.5067 5.02266V11.4227C14.4 13.556 13.44 14.6227 11.2 14.7293H4.8C2.66667 14.6227 1.6 13.556 1.49333 11.4227V8.22266V5.02266C1.6 2.88932 2.56 1.82266 4.8 1.71599H8Z" fill="black"/>
</svg>
