<svg width="16" height="17" viewBox="0 0 16 17" fill="none" xmlns="http://www.w3.org/2000/svg">
<path fill-rule="evenodd" clip-rule="evenodd" d="M11.2084 12.4168C13.2132 12.1774 14.9587 10.9422 15.1781 9.81352C15.5238 8.03557 15.4952 5.47473 15.4952 5.47473C15.4952 2.00385 13.2212 0.986475 13.2212 0.986475C12.0746 0.459859 10.1057 0.238403 8.06019 0.22168H8.00993C5.96441 0.238403 3.99682 0.459859 2.85015 0.986475C2.85015 0.986475 0.57602 2.00385 0.57602 5.47473C0.57602 5.68515 0.574932 5.90647 0.5738 6.13687C0.570655 6.77674 0.567167 7.48664 0.585674 8.22764C0.668257 11.622 1.20798 14.9673 4.34629 15.7979C5.7933 16.1809 7.03566 16.2611 8.03622 16.2061C9.85072 16.1055 10.8693 15.5585 10.8693 15.5585L10.8095 14.242C10.8095 14.242 9.5128 14.6509 8.05657 14.6011C6.61378 14.5516 5.09066 14.4455 4.8573 12.6741C4.83575 12.5185 4.82498 12.3521 4.82498 12.1774C4.82498 12.1774 6.2413 12.5236 8.03622 12.6058C9.13376 12.6562 10.163 12.5415 11.2084 12.4168ZM12.813 9.94688V5.74421C12.813 4.88528 12.5943 4.20273 12.1551 3.69775C11.702 3.19277 11.1088 2.9339 10.3724 2.9339C9.52029 2.9339 8.87506 3.26139 8.44853 3.91645L8.03372 4.61168L7.61899 3.91645C7.19237 3.26139 6.54714 2.9339 5.69511 2.9339C4.95867 2.9339 4.36542 3.19277 3.91243 3.69775C3.47313 4.20273 3.25444 4.88528 3.25444 5.74421V9.94688H4.91945V5.86774C4.91945 5.00787 5.28125 4.57142 6.00492 4.57142C6.80506 4.57142 7.20617 5.08916 7.20617 6.11291V8.34566H8.86135V6.11291C8.86135 5.08916 9.26237 4.57142 10.0625 4.57142C10.7862 4.57142 11.148 5.00787 11.148 5.86774V9.94688H12.813Z" fill="black"/>
</svg>
