<svg width="16" height="17" viewBox="0 0 16 17" fill="none" xmlns="http://www.w3.org/2000/svg">
<path fill-rule="evenodd" clip-rule="evenodd" d="M14.2602 2.84999C14.9456 3.0345 15.4859 3.57487 15.6704 4.2602C16.0131 5.51225 15.9999 8.1218 15.9999 8.1218C15.9999 8.1218 15.9999 10.7182 15.6704 11.9702C15.4859 12.6556 14.9456 13.1959 14.2602 13.3804C13.0082 13.7099 7.99997 13.7099 7.99997 13.7099C7.99997 13.7099 3.00493 13.7099 1.7397 13.3672C1.05436 13.1827 0.514001 12.6424 0.329488 11.957C0 10.7182 0 8.10862 0 8.10862C0 8.10862 0 5.51225 0.329488 4.2602C0.514001 3.57487 1.06754 3.02133 1.7397 2.83681C2.99175 2.50732 7.99997 2.50732 7.99997 2.50732C7.99997 2.50732 13.0082 2.50732 14.2602 2.84999ZM10.5692 8.10825L6.40451 10.5069V5.70958L10.5692 8.10825Z" fill="black"/>
</svg>
